# xmcd CD database file
#
# Track frame offsets:
#	150
#	27989
#	47915
#	66556
#	85225
#	107545
#	128735
#	148450
#	163454
#	180486
#	209497
#	242675
#
# Disc length: 3460 seconds
#
# Revision: 0
# Processed by: cddbd v1.5.1PL0 Copyright (c) Steve Scherf et al.
# Submitted via: CDex 1.51
#
DISCID=b70d820c
DTITLE=ACMA Jazz Band - After You've Gone
DYEAR=2005
DGENRE=Jazz
TTITLE0=Lime House Blues
TTITLE1=Lover Man
TTITLE2=Caravan
TTITLE3=Isfahan
TTITLE4=Happy Go Lucky Local
TTITLE5=Rainy Day
TTITLE6=Parker's Mood
TTITLE7=Ring Dem Bells
TTITLE8=Swinging for the Fences
TTITLE9=Sophisticated Lady
TTITLE10=Little Pixie
TTITLE11=After You've Gone
EXTD=YEAR: 2005
EXTT0=
EXTT1=
EXTT2=
EXTT3=
EXTT4=
EXTT5=
EXTT6=
EXTT7=
EXTT8=
EXTT9=
EXTT10=
EXTT11=
PLAYORDER=
